<svg width="1500" height="1126" viewBox="0 0 1500 1126" fill="none" xmlns="http://www.w3.org/2000/svg">
<rect width="1500" height="1126" fill="#160D80"/>
<path d="M1005.95 607.561C996.455 607.561 988.882 605.268 983.228 600.681C977.682 595.988 974.908 589.855 974.908 582.281C974.908 574.921 977.575 568.948 982.908 564.361C988.242 559.668 996.668 556.681 1008.19 555.401L1041.47 551.561V564.841L1013.79 568.361C1008.77 569.001 1005.04 570.335 1002.59 572.361C1000.13 574.388 998.908 577.215 998.908 580.841C998.908 584.148 1000.08 586.761 1002.43 588.681C1004.77 590.601 1008.24 591.561 1012.83 591.561C1017.09 591.561 1020.77 590.815 1023.87 589.321C1027.07 587.721 1029.52 585.481 1031.23 582.601C1033.04 579.615 1033.95 576.041 1033.95 571.881V548.681C1033.95 544.521 1032.61 541.268 1029.95 538.921C1027.28 536.468 1023.28 535.241 1017.95 535.241C1013.25 535.241 1009.41 536.148 1006.43 537.961C1003.44 539.775 1001.36 542.601 1000.19 546.441L977.628 541.961C979.975 534.281 984.828 528.415 992.188 524.361C999.548 520.308 1008.4 518.281 1018.75 518.281C1032.08 518.281 1042 521.161 1048.51 526.921C1055.01 532.681 1058.27 540.735 1058.27 551.081V589.801L1064.99 605.641H1039.55L1035.23 593.961H1034.27C1031.6 598.228 1027.81 601.588 1022.91 604.041C1018 606.388 1012.35 607.561 1005.95 607.561Z" fill="white"/>
<path d="M938.277 605.64V489H963.237V605.64H938.277Z" fill="white"/>
<path d="M860.444 637.641L875.164 601.161L882.044 590.281L904.444 520.201H930.524L885.244 637.641H860.444ZM867.644 605.321L833.244 520.201H859.324L882.684 587.721H889.884L889.564 605.321H867.644Z" fill="white"/>
<path d="M789.122 607.561C779.308 607.561 770.828 605.695 763.682 601.961C756.642 598.121 751.202 592.788 747.362 585.961C743.522 579.028 741.602 571.028 741.602 561.961C741.602 553.215 743.575 545.588 747.522 539.081C751.575 532.575 757.122 527.508 764.162 523.881C771.202 520.148 779.255 518.281 788.322 518.281C797.602 518.281 805.602 519.988 812.322 523.401C819.042 526.815 824.162 531.668 827.682 537.961C831.308 544.255 833.122 551.668 833.122 560.201C833.122 561.695 833.068 563.241 832.962 564.841C832.855 566.335 832.748 567.615 832.642 568.681H753.762V553.961H816.002L809.762 556.521C809.762 551.721 808.908 547.668 807.202 544.361C805.602 541.055 803.148 538.601 799.842 537.001C796.642 535.295 792.748 534.441 788.162 534.441C783.788 534.441 779.895 535.241 776.482 536.841C773.175 538.441 770.562 540.948 768.642 544.361C766.828 547.668 765.922 551.881 765.922 557.001V566.441C765.922 573.161 768.055 578.708 772.322 583.081C776.588 587.455 782.722 589.641 790.722 589.641C795.415 589.641 799.735 588.788 803.682 587.081C807.628 585.375 810.882 582.655 813.442 578.921L831.202 589.961C828.855 593.588 825.708 596.735 821.762 599.401C817.815 602.068 813.068 604.095 807.522 605.481C802.082 606.868 795.948 607.561 789.122 607.561Z" fill="white"/>
<path d="M695.201 607.561C683.468 607.561 673.974 605.588 666.721 601.641C659.574 597.588 654.988 591.988 652.961 584.841L676.001 580.361C677.494 584.415 679.894 587.348 683.201 589.161C686.614 590.975 690.934 591.881 696.161 591.881C701.174 591.881 704.961 591.028 707.521 589.321C710.188 587.615 711.521 585.215 711.521 582.121C711.521 579.455 710.668 577.375 708.961 575.881C707.254 574.388 704.481 573.268 700.641 572.521L680.481 568.361C672.801 566.761 666.988 563.988 663.041 560.041C659.094 556.095 657.121 551.028 657.121 544.841C657.121 539.401 658.721 534.708 661.921 530.761C665.121 526.708 669.654 523.615 675.521 521.481C681.494 519.348 688.481 518.281 696.481 518.281C703.414 518.281 709.548 519.081 714.881 520.681C720.321 522.281 724.854 524.628 728.481 527.721C732.108 530.708 734.561 534.281 735.841 538.441L713.441 543.401C712.054 540.201 709.814 537.855 706.721 536.361C703.734 534.761 700.054 533.961 695.681 533.961C690.881 533.961 687.308 534.708 684.961 536.201C682.614 537.588 681.441 539.828 681.441 542.921C681.441 544.841 682.241 546.548 683.841 548.041C685.548 549.535 688.534 550.708 692.801 551.561L712.321 555.561C717.228 556.521 721.441 558.015 724.961 560.041C728.588 562.068 731.308 564.681 733.121 567.881C735.041 571.081 736.001 575.028 736.001 579.721C736.001 585.588 734.401 590.601 731.201 594.761C728.001 598.921 723.361 602.121 717.281 604.361C711.201 606.495 703.841 607.561 695.201 607.561Z" fill="white"/>
<path d="M484.711 539.041L502.195 521.665L502.195 521.665C505.942 517.941 507.816 516.079 508.661 513.99C509.734 511.339 509.734 508.372 508.661 505.721C507.816 503.632 505.942 501.769 502.195 498.045L502.195 498.045C498.512 494.386 496.671 492.556 494.611 491.728C491.997 490.678 489.081 490.678 486.467 491.728C484.407 492.556 482.565 494.386 478.883 498.045L447.106 529.624C439.702 536.982 436 540.661 436 545.245C436 549.83 439.702 553.509 447.106 560.867L474.82 588.408C482.093 595.636 485.73 599.251 490.237 599.251C494.744 599.251 498.381 595.636 505.655 588.408L555.331 539.041C558.559 535.833 563.76 535.833 566.987 539.041C570.26 542.293 570.26 547.599 566.987 550.851L514.044 603.464C510.153 607.331 508.208 609.264 507.363 611.448C506.373 614.007 506.373 616.845 507.363 619.404C508.208 621.588 510.153 623.521 514.044 627.387C517.867 631.187 519.778 633.086 521.931 633.914C524.454 634.883 527.244 634.883 529.767 633.914C531.92 633.086 533.831 631.187 537.655 627.387L604.894 560.567C612.298 553.209 616 549.53 616 544.946C616 540.361 612.298 536.682 604.894 529.324L604.894 529.324L576.879 501.484C569.605 494.255 565.968 490.641 561.461 490.641C556.954 490.641 553.318 494.255 546.044 501.483L496.367 550.851C493.139 554.058 487.939 554.058 484.711 550.851C481.438 547.599 481.438 542.293 484.711 539.041Z" fill="#FF8A73"/>
</svg>
