<svg width="1500" height="1126" viewBox="0 0 1500 1126" fill="none" xmlns="http://www.w3.org/2000/svg">
<rect width="1500" height="1126" fill="#160D80"/>
<path d="M838.948 607.561C829.455 607.561 821.882 605.268 816.228 600.681C810.682 595.988 807.908 589.855 807.908 582.281C807.908 574.921 810.575 568.948 815.908 564.361C821.242 559.668 829.668 556.681 841.188 555.401L874.468 551.561V564.841L846.788 568.361C841.775 569.001 838.042 570.335 835.588 572.361C833.135 574.388 831.908 577.215 831.908 580.841C831.908 584.148 833.082 586.761 835.428 588.681C837.775 590.601 841.242 591.561 845.828 591.561C850.095 591.561 853.775 590.815 856.868 589.321C860.068 587.721 862.522 585.481 864.228 582.601C866.042 579.615 866.948 576.041 866.948 571.881V548.681C866.948 544.521 865.615 541.268 862.948 538.921C860.282 536.468 856.282 535.241 850.948 535.241C846.255 535.241 842.415 536.148 839.428 537.961C836.442 539.775 834.362 542.601 833.188 546.441L810.628 541.961C812.975 534.281 817.828 528.415 825.188 524.361C832.548 520.308 841.402 518.281 851.748 518.281C865.082 518.281 875.002 521.161 881.508 526.921C888.015 532.681 891.268 540.735 891.268 551.081V589.801L897.988 605.641H872.548L868.228 593.961H867.268C864.602 598.228 860.815 601.588 855.908 604.041C851.002 606.388 845.348 607.561 838.948 607.561Z" fill="white"/>
<path d="M771.277 605.64V489H796.237V605.64H771.277Z" fill="white"/>
<path d="M693.444 637.641L708.164 601.161L715.044 590.281L737.444 520.201H763.524L718.244 637.641H693.444ZM700.644 605.321L666.244 520.201H692.324L715.684 587.721H722.884L722.564 605.321H700.644Z" fill="white"/>
<path d="M622.122 607.561C612.308 607.561 603.828 605.695 596.682 601.961C589.642 598.121 584.202 592.788 580.362 585.961C576.522 579.028 574.602 571.028 574.602 561.961C574.602 553.215 576.575 545.588 580.522 539.081C584.575 532.575 590.122 527.508 597.162 523.881C604.202 520.148 612.255 518.281 621.322 518.281C630.602 518.281 638.602 519.988 645.322 523.401C652.042 526.815 657.162 531.668 660.682 537.961C664.308 544.255 666.122 551.668 666.122 560.201C666.122 561.695 666.068 563.241 665.962 564.841C665.855 566.335 665.748 567.615 665.642 568.681H586.762V553.961H649.002L642.762 556.521C642.762 551.721 641.908 547.668 640.202 544.361C638.602 541.055 636.148 538.601 632.842 537.001C629.642 535.295 625.748 534.441 621.162 534.441C616.788 534.441 612.895 535.241 609.482 536.841C606.175 538.441 603.562 540.948 601.642 544.361C599.828 547.668 598.922 551.881 598.922 557.001V566.441C598.922 573.161 601.055 578.708 605.322 583.081C609.588 587.455 615.722 589.641 623.722 589.641C628.415 589.641 632.735 588.788 636.682 587.081C640.628 585.375 643.882 582.655 646.442 578.921L664.202 589.961C661.855 593.588 658.708 596.735 654.762 599.401C650.815 602.068 646.068 604.095 640.522 605.481C635.082 606.868 628.948 607.561 622.122 607.561Z" fill="white"/>
<path d="M528.201 607.561C516.468 607.561 506.974 605.588 499.721 601.641C492.574 597.588 487.988 591.988 485.961 584.841L509.001 580.361C510.494 584.415 512.894 587.348 516.201 589.161C519.614 590.975 523.934 591.881 529.161 591.881C534.174 591.881 537.961 591.028 540.521 589.321C543.188 587.615 544.521 585.215 544.521 582.121C544.521 579.455 543.668 577.375 541.961 575.881C540.254 574.388 537.481 573.268 533.641 572.521L513.481 568.361C505.801 566.761 499.988 563.988 496.041 560.041C492.094 556.095 490.121 551.028 490.121 544.841C490.121 539.401 491.721 534.708 494.921 530.761C498.121 526.708 502.654 523.615 508.521 521.481C514.494 519.348 521.481 518.281 529.481 518.281C536.414 518.281 542.548 519.081 547.881 520.681C553.321 522.281 557.854 524.628 561.481 527.721C565.108 530.708 567.561 534.281 568.841 538.441L546.441 543.401C545.054 540.201 542.814 537.855 539.721 536.361C536.734 534.761 533.054 533.961 528.681 533.961C523.881 533.961 520.308 534.708 517.961 536.201C515.614 537.588 514.441 539.828 514.441 542.921C514.441 544.841 515.241 546.548 516.841 548.041C518.548 549.535 521.534 550.708 525.801 551.561L545.321 555.561C550.228 556.521 554.441 558.015 557.961 560.041C561.588 562.068 564.308 564.681 566.121 567.881C568.041 571.081 569.001 575.028 569.001 579.721C569.001 585.588 567.401 590.601 564.201 594.761C561.001 598.921 556.361 602.121 550.281 604.361C544.201 606.495 536.841 607.561 528.201 607.561Z" fill="white"/>
<path d="M1212.01 609.361C1208.85 609.361 1206.31 608.521 1204.39 606.841C1202.47 605.121 1201.51 602.901 1201.51 600.181C1201.51 597.501 1202.43 595.301 1204.27 593.581C1206.15 591.861 1208.97 590.741 1212.73 590.221L1223.95 588.541V593.041L1214.77 594.481C1212.81 594.761 1211.31 595.341 1210.27 596.221C1209.27 597.061 1208.77 598.221 1208.77 599.701C1208.77 601.061 1209.23 602.141 1210.15 602.941C1211.11 603.741 1212.41 604.141 1214.05 604.141C1215.49 604.141 1216.73 603.821 1217.77 603.181C1218.85 602.501 1219.69 601.561 1220.29 600.361C1220.89 599.161 1221.19 597.741 1221.19 596.101V587.221C1221.19 585.501 1220.71 584.141 1219.75 583.141C1218.79 582.141 1217.35 581.641 1215.43 581.641C1213.79 581.641 1212.45 582.021 1211.41 582.781C1210.41 583.501 1209.69 584.661 1209.25 586.261L1202.41 584.761C1203.21 582.001 1204.79 579.881 1207.15 578.401C1209.55 576.881 1212.41 576.121 1215.73 576.121C1220.05 576.121 1223.25 577.161 1225.33 579.241C1227.45 581.281 1228.51 584.121 1228.51 587.761V602.521L1230.79 608.641H1223.17L1221.61 604.201H1221.25C1220.37 605.801 1219.13 607.061 1217.53 607.981C1215.97 608.901 1214.13 609.361 1212.01 609.361Z" fill="white"/>
<path d="M1184.5 609.361C1181.54 609.361 1178.9 608.701 1176.58 607.381C1174.26 606.021 1172.42 604.101 1171.06 601.621C1169.74 599.101 1169.08 596.121 1169.08 592.681C1169.08 589.241 1169.74 586.301 1171.06 583.861C1172.42 581.381 1174.24 579.481 1176.52 578.161C1178.84 576.801 1181.46 576.121 1184.38 576.121C1187.82 576.121 1190.68 576.841 1192.96 578.281C1195.24 579.681 1196.88 581.841 1197.88 584.761L1191.4 587.041C1190.72 585.241 1189.8 583.941 1188.64 583.141C1187.52 582.301 1186.12 581.881 1184.44 581.881C1183.04 581.881 1181.74 582.281 1180.54 583.081C1179.38 583.841 1178.44 585.021 1177.72 586.621C1177 588.221 1176.64 590.241 1176.64 592.681C1176.64 595.161 1177 597.221 1177.72 598.861C1178.44 600.461 1179.38 601.661 1180.54 602.461C1181.74 603.221 1183.06 603.601 1184.5 603.601C1186.22 603.601 1187.64 603.181 1188.76 602.341C1189.92 601.461 1190.84 600.121 1191.52 598.321L1197.94 600.541C1196.94 603.461 1195.3 605.661 1193.02 607.141C1190.78 608.621 1187.94 609.361 1184.5 609.361Z" fill="white"/>
<path d="M1150.73 609.361C1147.49 609.361 1144.69 608.661 1142.33 607.261C1139.97 605.861 1138.15 603.881 1136.87 601.321C1135.59 598.761 1134.95 595.801 1134.95 592.441C1134.95 589.201 1135.61 586.361 1136.93 583.921C1138.29 581.481 1140.13 579.581 1142.45 578.221C1144.81 576.821 1147.45 576.121 1150.37 576.121C1153.41 576.121 1156.03 576.741 1158.23 577.981C1160.43 579.181 1162.11 580.921 1163.27 583.201C1164.47 585.481 1165.07 588.161 1165.07 591.241C1165.07 591.801 1165.05 592.381 1165.01 592.981C1165.01 593.581 1164.99 594.061 1164.95 594.421H1138.73V589.561H1160.03L1157.93 590.341C1157.97 588.381 1157.69 586.741 1157.09 585.421C1156.49 584.061 1155.61 583.041 1154.45 582.361C1153.33 581.681 1151.95 581.341 1150.31 581.341C1148.79 581.341 1147.43 581.681 1146.23 582.361C1145.03 583.041 1144.07 584.101 1143.35 585.541C1142.67 586.941 1142.33 588.741 1142.33 590.941V593.641C1142.33 596.641 1143.07 599.061 1144.55 600.901C1146.03 602.701 1148.23 603.601 1151.15 603.601C1152.79 603.601 1154.27 603.261 1155.59 602.581C1156.95 601.861 1158.05 600.761 1158.89 599.281L1164.41 602.521C1163.65 604.001 1162.63 605.261 1161.35 606.301C1160.07 607.301 1158.53 608.061 1156.73 608.581C1154.97 609.101 1152.97 609.361 1150.73 609.361Z" fill="white"/>
<path d="M1121.61 608.64V576.84H1129.05V608.64H1121.61ZM1101.21 608.64V576.84H1108.65V608.64H1101.21ZM1106.01 595.14V588.96H1124.25V595.14H1106.01Z" fill="white"/>
<path d="M1079.42 608.64V578.4H1086.86V608.64H1079.42ZM1069.46 583.02V576.84H1096.82V583.02H1069.46Z" fill="white"/>
<path d="M1035.64 608.64V576.84H1042.9V601.92H1043.2L1054.6 576.84H1065.1V608.64H1057.84V583.62H1057.6L1046.32 608.64H1035.64Z" fill="white"/>
<path d="M1004.46 609.36C1000.86 609.36 997.719 608.66 995.039 607.26C992.399 605.86 990.339 603.92 988.859 601.44C987.419 598.92 986.699 596.02 986.699 592.74C986.699 589.42 987.419 586.52 988.859 584.04C990.339 581.56 992.399 579.62 995.039 578.22C997.719 576.82 1000.86 576.12 1004.46 576.12H1012.02C1015.62 576.12 1018.74 576.82 1021.38 578.22C1024.02 579.62 1026.06 581.56 1027.5 584.04C1028.98 586.52 1029.72 589.42 1029.72 592.74C1029.72 596.02 1028.98 598.92 1027.5 601.44C1026.06 603.92 1024.02 605.86 1021.38 607.26C1018.74 608.66 1015.62 609.36 1012.02 609.36H1004.46ZM1004.58 603.72H1011.9C1013.98 603.72 1015.78 603.32 1017.3 602.52C1018.82 601.68 1020 600.44 1020.84 598.8C1021.68 597.16 1022.1 595.14 1022.1 592.74C1022.1 590.34 1021.68 588.32 1020.84 586.68C1020 585.04 1018.82 583.82 1017.3 583.02C1015.78 582.18 1013.98 581.76 1011.9 581.76H1004.58C1002.5 581.76 1000.7 582.18 999.179 583.02C997.659 583.82 996.479 585.04 995.639 586.68C994.799 588.32 994.379 590.34 994.379 592.74C994.379 595.14 994.799 597.16 995.639 598.8C996.479 600.44 997.659 601.68 999.179 602.52C1000.7 603.32 1002.5 603.72 1004.58 603.72ZM1004.52 620.64V607.5L1004.7 605.94V579.42L1004.52 578.22V564.9H1011.96V578.16L1011.78 579.3V605.88L1011.96 607.14V620.64H1004.52Z" fill="white"/>
<path d="M1173.65 548.64V535.68H1169.39L1169.03 536.52H1165.91C1163.55 536.52 1161.47 536.18 1159.67 535.5C1157.91 534.78 1156.53 533.7 1155.53 532.26C1154.53 530.82 1154.03 529.02 1154.03 526.86C1154.03 524.7 1154.51 522.88 1155.47 521.4C1156.47 519.88 1157.87 518.74 1159.67 517.98C1161.47 517.22 1163.57 516.84 1165.97 516.84H1181.09V548.64H1173.65ZM1152.95 548.64L1167.41 533.4L1175.81 533.46L1162.07 548.64H1152.95ZM1167.35 531.72H1173.65V522.12H1167.35C1165.43 522.12 1163.99 522.56 1163.03 523.44C1162.11 524.28 1161.65 525.44 1161.65 526.92C1161.65 528.4 1162.11 529.58 1163.03 530.46C1163.99 531.3 1165.43 531.72 1167.35 531.72Z" fill="white"/>
<path d="M1118.17 548.64V516.84H1125.43V541.92H1125.73L1137.13 516.84H1147.63V548.64H1140.37V523.62H1140.13L1128.85 548.64H1118.17Z" fill="white"/>
<path d="M1079.69 544.2C1080.73 543 1081.6 541.7 1082.28 540.3C1083 538.86 1083.53 537.2 1083.89 535.32C1084.25 533.4 1084.48 531.18 1084.56 528.66L1084.85 516.84H1108.85V544.2H1101.71V522.96H1087.67L1091.39 519.36L1091.15 529.08C1091.07 531.76 1090.85 534.04 1090.49 535.92C1090.13 537.8 1089.67 539.4 1089.11 540.72C1088.55 542 1087.87 543.16 1087.07 544.2H1079.69ZM1083.83 555.84H1076.88V542.46H1084.97V548.64H1083.83V555.84ZM1082.15 548.64V542.46H1107.47V548.64H1082.15ZM1106.57 555.84V548.64H1105.43V542.46H1113.54V555.84H1106.57Z" fill="white"/>
<path d="M1055.49 560.64L1060.35 547.44L1062.39 544.02L1070.49 516.84H1078.29L1062.93 560.64H1055.49ZM1058.19 548.58L1046.61 516.84H1054.41L1062.81 543.36H1065.03L1064.91 548.58H1058.19Z" fill="white"/>
<path d="M1027.42 548.64V518.4H1034.86V548.64H1027.42ZM1017.46 523.02V516.84H1044.82V523.02H1017.46Z" fill="white"/>
<path d="M1002.12 549.361C999.159 549.361 996.519 548.701 994.199 547.381C991.879 546.021 990.039 544.101 988.679 541.621C987.359 539.101 986.699 536.121 986.699 532.681C986.699 529.241 987.359 526.301 988.679 523.861C990.039 521.381 991.859 519.481 994.139 518.161C996.459 516.801 999.079 516.121 1002 516.121C1005.44 516.121 1008.3 516.841 1010.58 518.281C1012.86 519.681 1014.5 521.841 1015.5 524.761L1009.02 527.041C1008.34 525.241 1007.42 523.941 1006.26 523.141C1005.14 522.301 1003.74 521.881 1002.06 521.881C1000.66 521.881 999.359 522.281 998.159 523.081C996.999 523.841 996.059 525.021 995.339 526.621C994.619 528.221 994.259 530.241 994.259 532.681C994.259 535.161 994.619 537.221 995.339 538.861C996.059 540.461 996.999 541.661 998.159 542.461C999.359 543.221 1000.68 543.601 1002.12 543.601C1003.84 543.601 1005.26 543.181 1006.38 542.341C1007.54 541.461 1008.46 540.121 1009.14 538.321L1015.56 540.541C1014.56 543.461 1012.92 545.661 1010.64 547.141C1008.4 548.621 1005.56 549.361 1002.12 549.361Z" fill="white"/>
<path d="M317.711 539.041L335.195 521.665L335.195 521.665C338.942 517.941 340.816 516.079 341.661 513.99C342.734 511.339 342.734 508.372 341.661 505.721C340.816 503.632 338.942 501.769 335.195 498.045L335.195 498.045C331.512 494.386 329.671 492.556 327.611 491.728C324.997 490.678 322.081 490.678 319.467 491.728C317.407 492.556 315.565 494.386 311.883 498.045L280.106 529.624C272.702 536.982 269 540.661 269 545.245C269 549.83 272.702 553.509 280.106 560.867L307.82 588.408C315.093 595.636 318.73 599.251 323.237 599.251C327.744 599.251 331.381 595.636 338.655 588.408L388.331 539.041C391.559 535.833 396.76 535.833 399.987 539.041C403.26 542.293 403.26 547.599 399.987 550.851L347.044 603.464C343.153 607.331 341.208 609.264 340.363 611.448C339.373 614.007 339.373 616.845 340.363 619.404C341.208 621.588 343.153 623.521 347.044 627.387C350.867 631.187 352.778 633.086 354.931 633.914C357.454 634.883 360.244 634.883 362.767 633.914C364.92 633.086 366.831 631.187 370.655 627.387L437.894 560.567C445.298 553.209 449 549.53 449 544.946C449 540.361 445.298 536.682 437.894 529.324L437.894 529.324L409.879 501.484C402.605 494.255 398.968 490.641 394.461 490.641C389.954 490.641 386.318 494.255 379.044 501.483L329.367 550.851C326.139 554.058 320.939 554.058 317.711 550.851C314.438 547.599 314.438 542.293 317.711 539.041Z" fill="#FF8A73"/>
<path d="M944 615.641C944 616.745 943.105 617.641 942 617.641C940.895 617.641 940 616.745 940 615.641L940 499.641C940 498.536 940.895 497.641 942 497.641C943.105 497.641 944 498.536 944 499.641L944 615.641Z" fill="white" fill-opacity="0.24"/>
</svg>
