<svg width="180" height="144" viewBox="0 0 180 144" fill="none" xmlns="http://www.w3.org/2000/svg">
<path d="M48.7108 48.3999L66.1949 31.0248L66.195 31.0248C69.9424 27.3007 71.8161 25.4386 72.6613 23.3493C73.7338 20.698 73.7338 17.7316 72.6613 15.0803C71.8161 12.9909 69.9424 11.1289 66.1949 7.40475L66.1949 7.40472C62.5123 3.74511 60.6711 1.91531 58.6112 1.08764C55.9972 0.0373406 53.0805 0.0373406 50.4666 1.08764C48.4067 1.91531 46.5654 3.74512 42.8828 7.40475L11.1059 38.9837C3.70195 46.3414 0 50.0203 0 54.6049C0 59.1894 3.70195 62.8683 11.1059 70.2261L38.8195 97.767C46.0934 104.996 49.7304 108.61 54.2371 108.61C58.7438 108.61 62.3807 104.996 69.6546 97.767L119.331 48.3999C122.559 45.1922 127.76 45.1922 130.987 48.3999C134.26 51.6519 134.26 56.958 130.987 60.21L78.0436 112.824C74.1531 116.69 72.2078 118.623 71.3629 120.807C70.373 123.366 70.373 126.204 71.3629 128.763C72.2078 130.947 74.1531 132.88 78.0436 136.747C81.8667 140.546 83.7783 142.446 85.9311 143.273C88.4538 144.242 91.2444 144.242 93.7671 143.273C95.9199 142.446 97.8315 140.546 101.655 136.747L168.894 69.9262C176.298 62.5684 180 58.8895 180 54.305C180 49.7204 176.298 46.0415 168.894 38.6838L168.894 38.6837L140.879 10.8429C133.605 3.61429 129.968 0 125.461 0C120.954 0 117.318 3.61429 110.044 10.8429L60.3669 60.21C57.1391 63.4177 51.9387 63.4177 48.7108 60.21C45.4385 56.958 45.4385 51.6519 48.7108 48.3999Z" fill="#FF8A73"/>
</svg>
